<?xml version="1.0" standalone="no"?>
<!DOCTYPE svg PUBLIC "-//W3C//DTD SVG 20010904//EN"
 "http://www.w3.org/TR/2001/REC-SVG-20010904/DTD/svg10.dtd">
<svg version="1.0" xmlns="http://www.w3.org/2000/svg"
 width="313.000000pt" height="387.000000pt" viewBox="0 0 313.000000 387.000000"
 preserveAspectRatio="xMidYMid meet">

<g transform="translate(0.000000,387.000000) scale(0.100000,-0.100000)"
fill="#000000" stroke="none">
<path d="M1510 3598 c-298 -482 -711 -1046 -1117 -1525 -57 -67 -103 -124
-103 -127 0 -3 80 -102 178 -219 409 -490 758 -971 1035 -1424 l74 -122 83
136 c281 462 684 1011 1098 1497 l110 130 -21 26 c-12 15 -84 101 -159 191
-365 436 -731 938 -1018 1395 -45 71 -85 132 -89 137 -4 4 -36 -39 -71 -95z"/>
</g>
</svg>
