<?xml version="1.0" standalone="no"?>
<!DOCTYPE svg PUBLIC "-//W3C//DTD SVG 20010904//EN"
 "http://www.w3.org/TR/2001/REC-SVG-20010904/DTD/svg10.dtd">
<svg version="1.0" xmlns="http://www.w3.org/2000/svg"
 width="378.000000pt" height="390.000000pt" viewBox="0 0 378.000000 390.000000"
 preserveAspectRatio="xMidYMid meet">

<g transform="translate(0.000000,390.000000) scale(0.100000,-0.100000)"
fill="#000000" stroke="none">
<path d="M907 3679 c-281 -38 -516 -248 -588 -528 -26 -98 -27 -282 -4 -396
20 -100 82 -255 142 -360 75 -130 146 -232 429 -611 636 -850 774 -1076 905
-1482 l43 -133 26 88 c119 394 327 742 830 1393 253 327 282 367 378 512 160
245 245 450 278 670 39 269 -21 464 -201 643 -99 100 -175 146 -305 186 -108
34 -302 34 -410 0 -274 -85 -451 -269 -566 -586 -29 -82 -33 -88 -42 -65 -42
107 -56 138 -88 202 -146 290 -379 453 -674 471 -47 3 -115 1 -153 -4z"/>
</g>
</svg>
