<?xml version="1.0" standalone="no"?>
<!DOCTYPE svg PUBLIC "-//W3C//DTD SVG 20010904//EN"
 "http://www.w3.org/TR/2001/REC-SVG-20010904/DTD/svg10.dtd">
<svg version="1.0" xmlns="http://www.w3.org/2000/svg"
 width="319.000000pt" height="408.000000pt" viewBox="0 0 319.000000 408.000000"
 preserveAspectRatio="xMidYMid meet">

<g transform="translate(0.000000,408.000000) scale(0.100000,-0.100000)"
fill="#000000" stroke="none">
<path d="M1551 3808 c-30 -107 -71 -210 -133 -331 -97 -188 -240 -362 -493
-601 -258 -243 -477 -465 -538 -547 -66 -88 -130 -219 -154 -315 -22 -91 -21
-257 2 -344 53 -204 223 -377 425 -434 193 -54 415 -6 588 127 75 58 201 191
248 261 20 31 38 55 39 54 5 -7 -16 -212 -30 -295 -45 -267 -135 -453 -305
-624 -96 -97 -203 -172 -314 -218 -91 -38 -277 -92 -403 -117 -89 -18 -93 -19
-98 -49 -4 -16 -9 -38 -11 -47 -5 -17 57 -18 1201 -18 l1207 0 -7 32 c-12 60
-16 68 -35 68 -36 0 -365 88 -446 119 -225 87 -421 269 -534 496 -76 152 -122
339 -136 555 l-7 95 48 -65 c113 -153 251 -272 387 -334 98 -45 166 -60 273
-60 179 0 305 53 430 178 136 137 179 245 179 446 0 145 -14 211 -74 336 -71
148 -195 291 -500 574 -415 385 -569 578 -686 856 -24 59 -55 145 -69 192 -14
47 -26 87 -28 89 -2 2 -14 -34 -26 -79z"/>
</g>
</svg>
