<?xml version="1.0" standalone="no"?>
<!DOCTYPE svg PUBLIC "-//W3C//DTD SVG 20010904//EN"
 "http://www.w3.org/TR/2001/REC-SVG-20010904/DTD/svg10.dtd">
<svg version="1.0" xmlns="http://www.w3.org/2000/svg"
 width="395.000000pt" height="400.000000pt" viewBox="0 0 395.000000 400.000000"
 preserveAspectRatio="xMidYMid meet">

<g transform="translate(0.000000,400.000000) scale(0.100000,-0.100000)"
fill="#000000" stroke="none">
<path d="M1814 3645 c-147 -32 -266 -98 -378 -211 -235 -234 -287 -539 -145
-843 21 -46 53 -106 69 -133 17 -26 30 -50 30 -52 0 -3 -26 13 -57 33 -82 54
-159 80 -274 92 -380 39 -689 -186 -780 -569 -28 -118 -23 -331 11 -437 85
-270 276 -456 537 -527 100 -27 295 -29 395 -5 290 71 535 268 693 557 l46 85
-6 -100 c-32 -502 -185 -812 -508 -1028 -106 -71 -317 -145 -549 -192 l-86
-18 -11 -43 c-6 -23 -11 -45 -11 -48 0 -3 542 -6 1205 -6 957 0 1205 3 1205
13 0 6 -5 29 -10 49 -10 35 -14 37 -68 48 -108 22 -288 69 -363 96 -252 90
-463 276 -583 512 -64 127 -119 356 -131 544 -3 51 -8 111 -11 133 -4 37 -1
34 45 -48 92 -162 215 -305 346 -399 235 -168 550 -219 804 -130 250 89 434
304 492 577 19 90 17 265 -5 360 -65 283 -261 493 -526 562 -86 22 -271 21
-359 -2 -72 -18 -148 -54 -201 -94 l-34 -26 27 45 c46 74 113 221 133 290 14
49 19 96 18 195 0 113 -4 140 -27 210 -39 116 -91 199 -187 295 -118 118 -235
183 -388 215 -83 18 -276 18 -358 0z"/>
</g>
</svg>
